<svg xmlns="http://www.w3.org/2000/svg" id="Layer_1" data-name="Layer 1" viewBox="0 0 665 125.82"><title>Prosegur_Alarms_negro_RGB</title><path d="M158.75,143.52c-.26.73-.58,1.66-.91,2.78a73.18,73.18,0,0,0-2.87,25l18.77-8.75-10.19-21.86a52.64,52.64,0,0,0-4.8,2.78m-3.55,30.85a80.26,80.26,0,0,0,5.34,22.08l23.81-11.11-9.41-20.18Zm8.73,29.48a82.4,82.4,0,0,0,13.65,19l19.94-9.3-9.74-20.86ZM179.71,225a76.37,76.37,0,0,0,21.48,14.7c.79.35,1.5.66,2.12.9a59.93,59.93,0,0,0,5.81-2.14l-10.41-22.33ZM199,241.8a79.55,79.55,0,0,1-22-15.52l-18.15,8.46c11.55,7.88,25.83,10.34,40.14,7.06m-24.09-17.67a85.58,85.58,0,0,1-13.51-19.08L140.9,214.6l-7.67,3.57c-.54-1-1.06-2-1.55-3.09a62.41,62.41,0,0,1,30.19-82.93c27.23-12.7,57.26-6,74.6,17.17l-7.75,3.8a51.4,51.4,0,0,0-9-8.83l-18.85,8.79a81.55,81.55,0,0,1,13.31,18.35l25.81-12,2.71-1.17q1.13,2,2.1,4.11a62.4,62.4,0,0,1-30.18,82.93C187.35,258,157.29,251.36,140,228.16l7.68-3.88a50.9,50.9,0,0,0,8.56,8.55ZM158,197.64a83.23,83.23,0,0,1-5.49-22l-18,8.39a53.78,53.78,0,0,0,3.06,23.14Zm-5.76-25a76.39,76.39,0,0,1,2.68-26.35,54.08,54.08,0,0,0-20,34.43Zm47.87,39.75,20.82-9.7A82.41,82.41,0,0,0,215.09,180l-24.74,11.54Zm23.55-11,18.42-8.59a53.59,53.59,0,0,0-3.56-23.76l-20.83,9.72a83.52,83.52,0,0,1,6,22.63m18.06-5.29-17.77,8.28a81.53,81.53,0,0,1-2.22,26.67,54,54,0,0,0,20-34.95m-20.52,9.57L201.28,215,211.7,237.3a53.21,53.21,0,0,0,6.27-3.56c.2-.61.42-1.34.65-2.16a76.22,76.22,0,0,0,2.55-25.9M176.31,161.4,196,152.24a72.9,72.9,0,0,0-21-13.91c-1.16-.5-2.14-.88-2.89-1.15a61.33,61.33,0,0,0-5.94,2.33ZM198.73,151l18.33-8.55c-11.73-7.77-26.2-10.09-40.62-6.5a77.81,77.81,0,0,1,22.29,15m-.6,3.4L177.51,164l9.41,20.17,24.69-11.51a80.39,80.39,0,0,0-13.48-18.28m552.33,14." transform="translate(-125.82 -125.82)"/></svg>